<mxfile host="app.diagrams.net" modified="2023-10-06T07:03:14.023Z" agent="Mozilla/5.0 (Windows NT 10.0; Win64; x64) AppleWebKit/537.36 (KHTML, like Gecko) Chrome/117.0.0.0 Safari/537.36 Edg/117.0.2045.47" etag="6-LCMHtG6fn9bzpLdKTb" version="22.0.3" type="google">
  <diagram name="Page-1" id="2YBvvXClWsGukQMizWep">
    <mxGraphModel grid="1" page="1" gridSize="10" guides="1" tooltips="1" connect="1" arrows="1" fold="1" pageScale="1" pageWidth="850" pageHeight="1100" math="0" shadow="0">
      <root>
        <mxCell id="0" />
        <mxCell id="1" parent="0" />
        <mxCell id="hRofvWOGggAIrRGBLn4J-1" value="" style="shape=umlLifeline;perimeter=lifelinePerimeter;whiteSpace=wrap;html=1;container=1;dropTarget=0;collapsible=0;recursiveResize=0;outlineConnect=0;portConstraint=eastwest;newEdgeStyle={&quot;curved&quot;:0,&quot;rounded&quot;:0};participant=umlActor;size=30;" vertex="1" parent="1">
          <mxGeometry x="60" y="30" width="20" height="860" as="geometry" />
        </mxCell>
        <mxCell id="hRofvWOGggAIrRGBLn4J-2" value="" style="html=1;points=[[0,0,0,0,5],[0,1,0,0,-5],[1,0,0,0,5],[1,1,0,0,-5]];perimeter=orthogonalPerimeter;outlineConnect=0;targetShapes=umlLifeline;portConstraint=eastwest;newEdgeStyle={&quot;curved&quot;:0,&quot;rounded&quot;:0};" vertex="1" parent="hRofvWOGggAIrRGBLn4J-1">
          <mxGeometry x="5" y="70" width="10" height="760" as="geometry" />
        </mxCell>
        <mxCell id="hRofvWOGggAIrRGBLn4J-3" value="&lt;font style=&quot;font-size: 9px;&quot;&gt;Student&lt;/font&gt;" style="text;html=1;align=center;verticalAlign=middle;resizable=0;points=[];autosize=1;strokeColor=none;fillColor=none;labelBackgroundColor=default;labelBorderColor=none;" vertex="1" parent="1">
          <mxGeometry x="45" y="60" width="50" height="30" as="geometry" />
        </mxCell>
        <mxCell id="hRofvWOGggAIrRGBLn4J-4" value=":PrintingUI" style="shape=umlLifeline;perimeter=lifelinePerimeter;whiteSpace=wrap;html=1;container=0;dropTarget=0;collapsible=0;recursiveResize=0;outlineConnect=0;portConstraint=eastwest;newEdgeStyle={&quot;edgeStyle&quot;:&quot;elbowEdgeStyle&quot;,&quot;elbow&quot;:&quot;vertical&quot;,&quot;curved&quot;:0,&quot;rounded&quot;:0};" vertex="1" parent="1">
          <mxGeometry x="200" y="20" width="120" height="880" as="geometry" />
        </mxCell>
        <mxCell id="hRofvWOGggAIrRGBLn4J-5" value="" style="html=1;points=[];perimeter=orthogonalPerimeter;outlineConnect=0;targetShapes=umlLifeline;portConstraint=eastwest;newEdgeStyle={&quot;edgeStyle&quot;:&quot;elbowEdgeStyle&quot;,&quot;elbow&quot;:&quot;vertical&quot;,&quot;curved&quot;:0,&quot;rounded&quot;:0};" vertex="1" parent="hRofvWOGggAIrRGBLn4J-4">
          <mxGeometry x="55" y="80" width="10" height="760" as="geometry" />
        </mxCell>
        <mxCell id="hRofvWOGggAIrRGBLn4J-12" value=":PrintingController" style="shape=umlLifeline;perimeter=lifelinePerimeter;whiteSpace=wrap;html=1;container=0;dropTarget=0;collapsible=0;recursiveResize=0;outlineConnect=0;portConstraint=eastwest;newEdgeStyle={&quot;edgeStyle&quot;:&quot;elbowEdgeStyle&quot;,&quot;elbow&quot;:&quot;vertical&quot;,&quot;curved&quot;:0,&quot;rounded&quot;:0};" vertex="1" parent="1">
          <mxGeometry x="380" y="20" width="120" height="870" as="geometry" />
        </mxCell>
        <mxCell id="hRofvWOGggAIrRGBLn4J-13" value="" style="html=1;points=[];perimeter=orthogonalPerimeter;outlineConnect=0;targetShapes=umlLifeline;portConstraint=eastwest;newEdgeStyle={&quot;edgeStyle&quot;:&quot;elbowEdgeStyle&quot;,&quot;elbow&quot;:&quot;vertical&quot;,&quot;curved&quot;:0,&quot;rounded&quot;:0};" vertex="1" parent="hRofvWOGggAIrRGBLn4J-12">
          <mxGeometry x="55" y="160" width="10" height="670" as="geometry" />
        </mxCell>
        <mxCell id="hRofvWOGggAIrRGBLn4J-17" value="List of ready printer" style="html=1;verticalAlign=bottom;endArrow=open;dashed=1;endSize=8;curved=0;rounded=0;" edge="1" parent="1">
          <mxGeometry relative="1" as="geometry">
            <mxPoint x="438" y="280" as="sourcePoint" />
            <mxPoint x="262.5" y="280" as="targetPoint" />
            <mxPoint as="offset" />
          </mxGeometry>
        </mxCell>
        <mxCell id="DcZ5WrB20YN_ZVNYyKvt-1" value="Display list of ready printer" style="html=1;verticalAlign=bottom;endArrow=open;dashed=1;endSize=8;curved=0;rounded=0;" edge="1" parent="1" source="hRofvWOGggAIrRGBLn4J-5">
          <mxGeometry relative="1" as="geometry">
            <mxPoint x="250" y="310" as="sourcePoint" />
            <mxPoint x="72.5" y="310" as="targetPoint" />
            <mxPoint as="offset" />
          </mxGeometry>
        </mxCell>
        <mxCell id="DcZ5WrB20YN_ZVNYyKvt-8" value="" style="endArrow=block;html=1;rounded=0;endFill=1;" edge="1" parent="1">
          <mxGeometry width="50" height="50" relative="1" as="geometry">
            <mxPoint x="75" y="400" as="sourcePoint" />
            <mxPoint x="255" y="400" as="targetPoint" />
          </mxGeometry>
        </mxCell>
        <mxCell id="DcZ5WrB20YN_ZVNYyKvt-9" value="Confirm print" style="edgeLabel;html=1;align=center;verticalAlign=middle;resizable=0;points=[];" connectable="0" vertex="1" parent="DcZ5WrB20YN_ZVNYyKvt-8">
          <mxGeometry x="-0.0809" y="4" relative="1" as="geometry">
            <mxPoint x="5" y="-4" as="offset" />
          </mxGeometry>
        </mxCell>
        <mxCell id="DcZ5WrB20YN_ZVNYyKvt-12" value="alt" style="shape=umlFrame;whiteSpace=wrap;html=1;pointerEvents=0;" vertex="1" parent="1">
          <mxGeometry y="460" width="720" height="340" as="geometry" />
        </mxCell>
        <mxCell id="cNeX1aAFG1f90sdTpReL-6" value="CheckPrinter()" style="html=1;align=left;spacingLeft=2;endArrow=block;rounded=0;edgeStyle=orthogonalEdgeStyle;curved=0;rounded=0;" edge="1" parent="1">
          <mxGeometry relative="1" as="geometry">
            <mxPoint x="445" y="210" as="sourcePoint" />
            <Array as="points">
              <mxPoint x="480" y="210" />
              <mxPoint x="480" y="240" />
            </Array>
            <mxPoint x="445" y="240" as="targetPoint" />
          </mxGeometry>
        </mxCell>
        <mxCell id="DcZ5WrB20YN_ZVNYyKvt-14" value="[sufficient]&lt;span id=&quot;docs-internal-guid-7108020c-7fff-6f51-adf0-05f6402bb86d&quot;&gt;&lt;/span&gt;" style="text;html=1;align=center;verticalAlign=middle;resizable=0;points=[];autosize=1;strokeColor=none;fillColor=none;rotation=-90;" vertex="1" parent="1">
          <mxGeometry x="-25" y="560" width="80" height="30" as="geometry" />
        </mxCell>
        <mxCell id="DcZ5WrB20YN_ZVNYyKvt-15" value="[else]&lt;span id=&quot;docs-internal-guid-7108020c-7fff-6f51-adf0-05f6402bb86d&quot;&gt;&lt;/span&gt;" style="text;html=1;align=center;verticalAlign=middle;resizable=0;points=[];autosize=1;strokeColor=none;fillColor=none;rotation=-90;" vertex="1" parent="1">
          <mxGeometry x="-10" y="740" width="50" height="30" as="geometry" />
        </mxCell>
        <mxCell id="DcZ5WrB20YN_ZVNYyKvt-16" value="PrinterManager" style="shape=umlLifeline;perimeter=lifelinePerimeter;whiteSpace=wrap;html=1;container=0;dropTarget=0;collapsible=0;recursiveResize=0;outlineConnect=0;portConstraint=eastwest;newEdgeStyle={&quot;edgeStyle&quot;:&quot;elbowEdgeStyle&quot;,&quot;elbow&quot;:&quot;vertical&quot;,&quot;curved&quot;:0,&quot;rounded&quot;:0};" vertex="1" parent="1">
          <mxGeometry x="590" y="20" width="120" height="870" as="geometry" />
        </mxCell>
        <mxCell id="DcZ5WrB20YN_ZVNYyKvt-17" value="" style="html=1;points=[];perimeter=orthogonalPerimeter;outlineConnect=0;targetShapes=umlLifeline;portConstraint=eastwest;newEdgeStyle={&quot;edgeStyle&quot;:&quot;elbowEdgeStyle&quot;,&quot;elbow&quot;:&quot;vertical&quot;,&quot;curved&quot;:0,&quot;rounded&quot;:0};" vertex="1" parent="DcZ5WrB20YN_ZVNYyKvt-16">
          <mxGeometry x="55" y="477" width="10" height="33" as="geometry" />
        </mxCell>
        <mxCell id="DcZ5WrB20YN_ZVNYyKvt-26" value="UpdateBalance()" style="html=1;align=left;spacingLeft=2;endArrow=block;rounded=0;edgeStyle=orthogonalEdgeStyle;curved=0;rounded=0;" edge="1" parent="1">
          <mxGeometry relative="1" as="geometry">
            <mxPoint x="445" y="541" as="sourcePoint" />
            <Array as="points">
              <mxPoint x="480" y="541" />
              <mxPoint x="480" y="571" />
            </Array>
            <mxPoint x="445" y="571" as="targetPoint" />
            <mxPoint as="offset" />
          </mxGeometry>
        </mxCell>
        <mxCell id="cNeX1aAFG1f90sdTpReL-3" value="SetPrintingProperties()" style="html=1;verticalAlign=bottom;endArrow=block;curved=0;rounded=0;" edge="1" parent="1">
          <mxGeometry width="80" relative="1" as="geometry">
            <mxPoint x="265" y="178" as="sourcePoint" />
            <mxPoint x="435" y="178" as="targetPoint" />
            <mxPoint as="offset" />
          </mxGeometry>
        </mxCell>
        <mxCell id="cNeX1aAFG1f90sdTpReL-7" value="" style="endArrow=block;html=1;rounded=0;endFill=1;" edge="1" parent="1">
          <mxGeometry width="50" height="50" relative="1" as="geometry">
            <mxPoint x="76" y="360" as="sourcePoint" />
            <mxPoint x="256" y="360" as="targetPoint" />
          </mxGeometry>
        </mxCell>
        <mxCell id="cNeX1aAFG1f90sdTpReL-8" value="Choose a printer" style="edgeLabel;html=1;align=center;verticalAlign=middle;resizable=0;points=[];" connectable="0" vertex="1" parent="cNeX1aAFG1f90sdTpReL-7">
          <mxGeometry x="-0.0809" y="4" relative="1" as="geometry">
            <mxPoint x="5" y="-4" as="offset" />
          </mxGeometry>
        </mxCell>
        <mxCell id="cNeX1aAFG1f90sdTpReL-11" value="CheckBalance()" style="html=1;verticalAlign=bottom;endArrow=block;curved=0;rounded=0;" edge="1" parent="1">
          <mxGeometry width="80" relative="1" as="geometry">
            <mxPoint x="265" y="440" as="sourcePoint" />
            <mxPoint x="435" y="440" as="targetPoint" />
          </mxGeometry>
        </mxCell>
        <mxCell id="DcZ5WrB20YN_ZVNYyKvt-40" value="Display Print job details" style="html=1;verticalAlign=bottom;endArrow=open;dashed=1;endSize=8;curved=0;rounded=0;" edge="1" parent="1">
          <mxGeometry relative="1" as="geometry">
            <mxPoint x="254" y="640" as="sourcePoint" />
            <mxPoint x="76" y="640" as="targetPoint" />
            <mxPoint as="offset" />
          </mxGeometry>
        </mxCell>
        <mxCell id="cNeX1aAFG1f90sdTpReL-13" value="Add print request to printing queue" style="html=1;verticalAlign=bottom;endArrow=block;curved=0;rounded=0;" edge="1" parent="1" target="DcZ5WrB20YN_ZVNYyKvt-17">
          <mxGeometry width="80" relative="1" as="geometry">
            <mxPoint x="445" y="497" as="sourcePoint" />
            <mxPoint x="605" y="497" as="targetPoint" />
            <mxPoint as="offset" />
          </mxGeometry>
        </mxCell>
        <mxCell id="DcZ5WrB20YN_ZVNYyKvt-41" value="Display insufficient message" style="html=1;verticalAlign=bottom;endArrow=open;dashed=1;endSize=8;curved=0;rounded=0;entryX=1.5;entryY=0.85;entryDx=0;entryDy=0;entryPerimeter=0;" edge="1" parent="1">
          <mxGeometry relative="1" as="geometry">
            <mxPoint x="250" y="760" as="sourcePoint" />
            <mxPoint x="76" y="759.5" as="targetPoint" />
          </mxGeometry>
        </mxCell>
        <mxCell id="cNeX1aAFG1f90sdTpReL-14" value="Printing suscessfull" style="html=1;verticalAlign=bottom;endArrow=open;dashed=1;endSize=8;curved=0;rounded=0;" edge="1" parent="1">
          <mxGeometry x="-0.0035" relative="1" as="geometry">
            <mxPoint x="435" y="599" as="sourcePoint" />
            <mxPoint x="265" y="599" as="targetPoint" />
            <mxPoint as="offset" />
          </mxGeometry>
        </mxCell>
        <mxCell id="cNeX1aAFG1f90sdTpReL-15" value="Select Confirm Properties" style="html=1;verticalAlign=bottom;endArrow=block;curved=0;rounded=0;" edge="1" parent="1" target="hRofvWOGggAIrRGBLn4J-5">
          <mxGeometry width="80" relative="1" as="geometry">
            <mxPoint x="75" y="139" as="sourcePoint" />
            <mxPoint x="259.5" y="139" as="targetPoint" />
            <mxPoint as="offset" />
          </mxGeometry>
        </mxCell>
        <mxCell id="cNeX1aAFG1f90sdTpReL-19" value="" style="endArrow=none;dashed=1;html=1;rounded=0;exitX=0.998;exitY=0.657;exitDx=0;exitDy=0;exitPerimeter=0;" edge="1" parent="1" source="DcZ5WrB20YN_ZVNYyKvt-12">
          <mxGeometry width="50" height="50" relative="1" as="geometry">
            <mxPoint x="320" y="682.35" as="sourcePoint" />
            <mxPoint y="679.9970588235295" as="targetPoint" />
          </mxGeometry>
        </mxCell>
        <mxCell id="cNeX1aAFG1f90sdTpReL-22" value="Insufficient balance" style="html=1;verticalAlign=bottom;endArrow=open;dashed=1;endSize=8;curved=0;rounded=0;entryX=1.5;entryY=0.85;entryDx=0;entryDy=0;entryPerimeter=0;" edge="1" parent="1">
          <mxGeometry relative="1" as="geometry">
            <mxPoint x="437" y="720.5" as="sourcePoint" />
            <mxPoint x="263" y="720" as="targetPoint" />
            <mxPoint as="offset" />
          </mxGeometry>
        </mxCell>
      </root>
    </mxGraphModel>
  </diagram>
</mxfile>
